#!OML:ASF H:\Terrain\Patient Classification 1\Animal2\Wednesday\Animal2.ASF
:FULLY-SPECIFIED
:DEGREES
4093
root 1.92599 16.5019 -12.0059 -1.35432 -49.5616 0.441778
lowerback 5.49595 -7.37417 -3.78791
upperback -2.66451 -10.3113 -2.41549
thorax -5.6224 -5.0131 0.608538
lowerneck 3.12543 2.9673 9.35081
upperneck -8.52471 0.568645 -36.5541
head -2.72093 0.803025 -14.2254
rclavicle -1.17283e-014 -2.22639e-014
rhumerus -31.4566 -12.9802 -34.3867
rradius 129.938
rwrist 7.51424
rhand -8.78228 37.1508
rfingers 7.12502
rthumb 17.156 7.88825
lclavicle -1.17283e-014 -2.22639e-014
lhumerus -7.5169 1.23733 74.0411
lradius 133.552
lwrist 62.935
lhand -47.0439 40.4824
lfingers 7.12502
lthumb -19.7494 -650.501
rfemur -23.3172 23.1609 -1.40694
rtibia 36.3726
rfoot -25.7707 -1.83592
rtoes -34.6891
lfemur 4.19366 0.680121 -1.817
ltibia 26.4973
lfoot -27.7823 2.64835
ltoes -37.6139
4094
root 1.93249 16.5095 -11.9934 -1.32936 -49.8222 0.646821
lowerback 5.22645 -7.66717 -3.96362
upperback -2.59609 -10.6858 -2.27719
thorax -5.32974 -5.19858 0.824203
lowerneck 2.94473 2.92027 9.29728
upperneck -8.60762 0.452362 -36.4838
head -2.73838 0.728552 -14.1798
rclavicle 7.8023e-014 1.35174e-014
rhumerus -31.9815 -13.6261 -34.1924
rradius 129.993
rwrist 6.98435
rhand -8.51732 37.1835
rfingers 7.12502
rthumb 17.411 7.94331
lclavicle 7.8023e-014 1.35174e-014
lhumerus -7.04206 0.962505 74.1248
lradius 133.41
lwrist 62.7705
lhand -46.5787 41.1812
lfingers 7.12502
lthumb -19.3022 -649.757
rfemur -23.5355 23.1579 -1.70548
rtibia 36.171
rfoot -25.7312 -1.51196
rtoes -34.1488
lfemur 4.17467 0.871954 -2.03563
ltibia 26.3959
lfoot -27.8946 2.81187
ltoes -37.9329
4095
root 1.94201 16.5167 -11.9801 -1.17706 -50.032 0.637559
lowerback 5.18879 -8.00244 -4.11837
upperback -2.64905 -11.1249 -1.96394
thorax -5.25839 -5.40493 1.25052
lowerneck 2.81363 2.97871 9.29921
upperneck -8.53878 0.511451 -36.6524
head -2.67507 0.729773 -14.2517
rclavicle -1.21259e-014 3.18055e-015
rhumerus -32.2684 -14.0859 -34.0353
rradius 129.931
rwrist 6.50679
rhand -8.50216 37.0822
rfingers 7.12502
rthumb 17.4256 7.84324
lclavicle -1.21259e-014 3.18055e-015
lhumerus -6.86176 0.779817 74.5019
lradius 133.218
lwrist 62.6639
lhand -45.9476 41.238
lfingers 7.12502
lthumb -18.6953 -649.64
rfemur -23.6526 23.1418 -1.81509
rtibia 35.9446
rfoot -25.6566 -1.37479
rtoes -33.9881
lfemur 4.19667 0.991099 -2.11462
ltibia 26.2518
lfoot -27.8691 2.81978
ltoes -37.7713
4096
root 1.95023 16.5244 -11.9684 -1.03902 -50.2294 0.454626
lowerback 5.33131 -8.32583 -4.16699
upperback -2.65709 -11.5489 -1.65824
thorax -5.25677 -5.60533 1.63595
lowerneck 2.7954 3.05365 9.36731
upperneck -8.53389 0.583187 -36.8308
head -2.64732 0.751503 -14.3493
rclavicle -8.8658e-014 -3.02153e-014
rhumerus -32.4086 -14.449 -34.0948
rradius 129.665
rwrist 6.35321
rhand -9.01989 36.7213
rfingers 7.12502
rthumb 16.9273 7.43897
lclavicle -8.8658e-014 -3.02153e-014
lhumerus -6.70398 0.456375 74.793
lradius 133.184
lwrist 62.8092
lhand -45.1626 41.2466
lfingers 7.12502
lthumb -17.9401 -649.561
rfemur -23.5878 23.1309 -1.70507
rtibia 35.7088
rfoot -25.5663 -1.38088
rtoes -34.5746
lfemur 4.40868 1.12575 -2.04521
ltibia 26.0647
lfoot -27.8471 2.70696
ltoes -37.3483
4097
root 1.95369 16.5383 -11.9578 -1.08261 -50.4847 0.454549
lowerback 5.53227 -8.62229 -4.22054
upperback -2.6808 -11.9522 -1.50845
thorax -5.33344 -5.79588 1.8783
lowerneck 2.83586 3.14766 9.42005
upperneck -8.62505 0.669968 -36.8972
head -2.65445 0.794772 -14.3964
rclavicle -9.19379e-014 7.15625e-015
rhumerus -32.8048 -14.6889 -34.1644
rradius 129.513
rwrist 6.30966
rhand -9.62543 36.3279
rfingers 7.12502
rthumb 16.3443 6.99666
lclavicle -9.19379e-014 7.15625e-015
lhumerus -6.62919 0.163473 74.8153
lradius 133.167
lwrist 62.9809
lhand -44.0787 41.3044
lfingers 7.12502
lthumb -16.897 -649.411
rfemur -23.5228 23.2107 -1.71532
rtibia 35.4721
rfoot -25.4826 -1.09497
rtoes -34.6169
lfemur 4.68379 1.25075 -2.13499
ltibia 25.8908
lfoot -27.8326 2.99827
ltoes -37.6867
4098
root 1.95654 16.5489 -11.9488 -1.06986 -50.7762 0.620083
lowerback 5.60274 -8.91915 -4.32942
upperback -2.81903 -12.363 -1.39751
thorax -5.45207 -5.9872 2.10052
lowerneck 2.62026 3.28567 9.39397
upperneck -8.38069 0.946646 -36.7992
head -2.47018 0.884204 -14.3236
rclavicle 1.23992e-013 8.74653e-015
rhumerus -33.3524 -14.8785 -34.1312
rradius 129.569
rwrist 6.05992
rhand -9.92103 35.9282
rfingers 7.12502
rthumb 16.0597 6.57377
lclavicle 1.23992e-013 8.74653e-015
lhumerus -6.70435 -0.0685913 74.7463
lradius 133.107
lwrist 62.8891
lhand -43.0755 40.7518
lfingers 7.12502
lthumb -15.9311 -649.883
rfemur -23.7071 23.3421 -1.9562
rtibia 35.2431
rfoot -25.4284 -0.826904
rtoes -34.1085
lfemur 4.73315 1.37481 -2.35258
ltibia 25.7652
lfoot -27.7525 3.35223
ltoes -38.187
4099
root 1.96146 16.5505 -11.9414 -0.913657 -51.0423 0.662904
lowerback 5.58345 -9.18567 -4.38899
upperback -2.94573 -12.7188 -1.21611
thorax -5.50213 -6.15449 2.34629
lowerneck 2.37387 3.32319 9.23795
upperneck -8.03537 1.10251 -36.612
head -2.29014 0.906434 -14.1772
rclavicle -1.07443e-013 -2.94201e-014
rhumerus -33.7611 -15.1465 -33.9798
rradius 129.526
rwrist 5.70261
rhand -9.96964 35.4921
rfingers 7.12502
rthumb 16.0129 6.13386
lclavicle -1.07443e-013 -2.94201e-014
lhumerus -6.79349 -0.461476 74.8623
lradius 133.015
lwrist 62.4693
lhand -41.8788 40.155
lfingers 7.12502
lthumb -14.7784 -650.392
rfemur -23.971 23.4787 -2.13392
rtibia 35.055
rfoot -25.3947 -0.938874
rtoes -34.1157
lfemur 4.70725 1.48281 -2.46002
ltibia 25.6499
lfoot -27.7161 3.3518
ltoes -37.9026
4100
root 1.96832 16.5503 -11.9334 -0.572302 -51.2846 0.33186
lowerback 5.68693 -9.4134 -4.23234
upperback -3.03869 -13.0071 -0.981867
thorax -5.62066 -6.29217 2.55092
lowerneck 2.66284 3.16845 9.19588
upperneck -8.28722 0.770105 -36.5762
head -2.50702 0.78108 -14.1728
rclavicle 3.39425e-014 7.15625e-015
rhumerus -34.2075 -15.4547 -33.7511
rradius 129.377
rwrist 5.27789
rhand -9.72086 35.3095
rfingers 7.12502
rthumb 16.2524 5.97064
lclavicle 3.39425e-014 7.15625e-015
lhumerus -6.90019 -0.99773 75.1159
lradius 132.888
lwrist 62.0024
lhand -40.4932 39.8865
lfingers 7.12502
lthumb -13.4432 -650.567
rfemur -24.1105 23.6886 -1.99066
rtibia 34.9192
rfoot -25.291 -1.28692
rtoes -34.8583
lfemur 4.7575 1.57177 -2.28136
ltibia 25.5593
lfoot -27.6526 3.2945
ltoes -37.3965
4101
root 1.97466 16.5534 -11.9229 -0.530348 -51.5473 0.329897
lowerback 5.79246 -9.65753 -4.27299
upperback -3.12194 -13.338 -0.835163
thorax -5.70441 -6.44658 2.76967
lowerneck 3.33588 3.0884 9.37422
upperneck -8.90809 0.433599 -36.7081
head -2.89888 0.712098 -14.3237
rclavicle -8.02096e-014 -1.51076e-014
rhumerus -34.6263 -15.6722 -33.735
rradius 129.268
rwrist 4.92616
rhand -9.40087 35.1464
rfingers 7.12502
rthumb 16.5605 5.83303
lclavicle -8.02096e-014 -1.51076e-014
lhumerus -7.06125 -1.45493 75.1692
lradius 132.811
lwrist 61.7999
lhand -39.5164 39.2447
lfingers 7.12502
lthumb -12.5016 -651.149
rfemur -24.2047 23.8723 -2.07539
rtibia 34.806
rfoot -25.2233 -1.14635
rtoes -34.8961
lfemur 4.84973 1.65988 -2.35852
ltibia 25.5142
lfoot -27.495 3.59494
ltoes -37.675
4102
root 1.98021 16.5598 -11.9152 -0.829684 -51.7448 0.88779
lowerback 5.77134 -9.90039 -4.6944
upperback -3.21771 -13.6936 -0.713558
thorax -5.64684 -6.6054 3.12768
lowerneck 3.65032 3.11364 9.48467
upperneck -9.10454 0.379244 -36.8639
head -3.02845 0.717994 -14.4411
rclavicle -1.92821e-014 -1.15295e-014
rhumerus -34.9097 -15.9781 -33.8068
rradius 129.134
rwrist 4.69319
rhand -9.48848 34.8803
rfingers 7.12502
rthumb 16.4762 5.55995
lclavicle -1.92821e-014 -1.15295e-014
lhumerus -7.10005 -1.90752 75.1061
lradius 132.737
lwrist 61.7509
lhand -38.6942 38.5491
lfingers 7.12502
lthumb -11.7087 -651.798
rfemur -24.4042 23.7787 -2.57849
rtibia 34.6908
rfoot -25.1981 -0.398715
rtoes -33.8638
lfemur 4.82073 1.78202 -2.83906
ltibia 25.4608
lfoot -27.3115 4.26542
ltoes -38.8113
4103
root 1.9866 16.5684 -11.9113 -0.773021 -51.8655 1.1524
lowerback 5.68795 -10.0844 -4.88243
upperback -3.34558 -13.9473 -0.549388
thorax -5.63331 -6.72043 3.39596
lowerneck 3.36782 3.04526 9.27556
upperneck -8.7315 0.373656 -36.727
head -2.87501 0.658838 -14.3021
rclavicle 7.71781e-014 1.43125e-014
rhumerus -35.4534 -16.511 -33.4031
rradius 129.017
rwrist 4.03188
rhand -9.42536 34.9835
rfingers 7.12502
rthumb 16.5369 5.66813
lclavicle 7.71781e-014 1.43125e-014
lhumerus -7.1023 -1.93041 75.9003
lradius 132.809
lwrist 61.083
lhand -36.8084 38.4902
lfingers 7.12502
lthumb -9.88981 -651.762
rfemur -24.708 23.569 -2.89739
rtibia 34.5695
rfoot -25.1033 0.150152
rtoes -33.1277
lfemur 4.64188 1.96765 -3.07023
ltibia 25.322
lfoot -27.1351 4.72234
ltoes -39.6201
4104
root 1.9896 16.5773 -11.9037 -0.422987 -52.0561 0.930755
lowerback 5.65594 -10.2485 -4.70766
upperback -3.43073 -14.1447 -0.371175
thorax -5.68568 -6.81866 3.50292
lowerneck 3.00486 2.9981 8.82603
upperneck -8.38582 0.406281 -36.3347
head -2.70834 0.619276 -13.9918
rclavicle 1.28912e-013 1.07344e-014
rhumerus -35.9725 -16.9776 -32.6563
rradius 128.842
rwrist 3.28905
rhand -9.22363 35.0732
rfingers 7.12502
rthumb 16.7312 5.77413
lclavicle 1.28912e-013 1.07344e-014
lhumerus -7.12609 -2.55994 75.9815
lradius 132.663
lwrist 60.3167
lhand -35.298 37.8967
lfingers 7.12502
lthumb -8.43233 -652.292
rfemur -24.9203 23.6243 -2.84984
rtibia 34.4446
rfoot -25.0194 0.265468
rtoes -33.0261
lfemur 4.64793 2.14499 -2.95301
ltibia 25.1206
lfoot -27.0784 4.68105
ltoes -39.5075
